<?xml version="1.0" standalone="no"?>
<!DOCTYPE svg PUBLIC "-//W3C//DTD SVG 20010904//EN"
 "http://www.w3.org/TR/2001/REC-SVG-20010904/DTD/svg10.dtd">
<svg version="1.0" xmlns="http://www.w3.org/2000/svg"
 width="192.000000pt" height="192.000000pt" viewBox="0 0 192.000000 192.000000"
 preserveAspectRatio="xMidYMid meet">

<g transform="translate(0.000000,192.000000) scale(0.100000,-0.100000)"
fill="#000000" stroke="none">
<path d="M960 1530 c0 -27 -3 -30 -30 -30 -27 0 -30 -3 -30 -30 l0 -30 -120 0
-120 0 0 -30 c0 -27 -3 -30 -30 -30 -27 0 -30 -3 -30 -30 0 -27 -3 -30 -30
-30 l-30 0 0 -90 0 -90 30 0 30 0 0 -60 0 -60 30 0 c27 0 30 -3 30 -30 l0 -30
60 0 60 0 0 -90 0 -90 -60 0 -60 0 0 -30 c0 -27 -3 -30 -30 -30 l-30 0 0 -120
0 -120 30 0 c27 0 30 -3 30 -30 0 -27 3 -30 30 -30 27 0 30 -3 30 -30 l0 -30
210 0 210 0 0 30 c0 27 3 30 30 30 27 0 30 3 30 30 0 27 3 30 30 30 l30 0 0
120 0 120 -30 0 c-27 0 -30 3 -30 30 l0 30 -60 0 -60 0 0 90 0 90 30 0 c27 0
30 3 30 30 0 27 3 30 30 30 l30 0 0 60 0 60 30 0 c27 0 30 3 30 30 0 27 3 30
30 30 l30 0 0 60 0 60 -30 0 c-27 0 -30 3 -30 30 0 27 -3 30 -30 30 -27 0 -30
3 -30 30 l0 30 -60 0 -60 0 0 60 0 60 -60 0 -60 0 0 -30z m54 -85 c8 -53 3
-65 -30 -65 -23 0 -24 -3 -24 -60 l0 -60 -30 0 -30 0 0 90 0 90 30 0 c25 0 30
4 30 25 0 20 5 25 24 25 20 0 25 -6 30 -45z m-234 -95 c0 -27 -3 -30 -30 -30
-27 0 -30 3 -30 30 0 27 3 30 30 30 27 0 30 -3 30 -30z m-70 -60 c0 -28 3 -30
35 -30 32 0 35 -2 35 -30 l0 -30 115 0 115 0 0 -30 0 -30 -205 0 -205 0 0 60
0 60 30 0 c27 0 30 3 30 30 0 25 4 30 25 30 21 0 25 -5 25 -30z m430 -55 c0
-21 -5 -25 -30 -25 -25 0 -30 4 -30 25 0 21 5 25 30 25 25 0 30 -4 30 -25z
m-360 -185 l0 -30 120 0 120 0 0 30 0 30 60 0 60 0 0 -30 0 -30 -60 0 -60 0 0
-120 0 -120 30 0 c27 0 30 -3 30 -30 l0 -30 60 0 60 0 0 -60 0 -60 -30 0 c-27
0 -30 -3 -30 -30 0 -25 4 -30 25 -30 21 0 25 -5 25 -30 0 -25 -4 -30 -25 -30
-20 0 -25 -5 -25 -25 0 -21 -5 -25 -30 -25 -25 0 -30 4 -30 25 l0 25 -150 0
-150 0 0 -25 c0 -21 -5 -25 -30 -25 -25 0 -30 4 -30 25 0 21 -5 25 -30 25 -27
0 -30 3 -30 30 0 27 3 30 30 30 27 0 30 3 30 30 0 27 -3 30 -30 30 l-30 0 0
60 0 60 60 0 60 0 0 30 c0 27 3 30 30 30 l30 0 0 90 0 90 -30 0 c-27 0 -30 3
-30 30 l0 30 -60 0 -60 0 0 30 0 30 60 0 60 0 0 -30z"/>
<path d="M720 510 c0 -27 3 -30 30 -30 27 0 30 3 30 30 0 27 -3 30 -30 30 -27
0 -30 -3 -30 -30z"/>
<path d="M1080 510 c0 -27 3 -30 30 -30 27 0 30 3 30 30 0 27 -3 30 -30 30
-27 0 -30 -3 -30 -30z"/>
</g>
</svg>
